<svg xmlns="http://www.w3.org/2000/svg" viewBox="0 0 320 109" width="320" height="109">
  <defs>
    <linearGradient id="roseGradient" x1="0%" y1="0%" x2="100%" y2="100%">
      <stop offset="0%" style="stop-color:#D63585"/>
      <stop offset="100%" style="stop-color:#E85A9E"/>
    </linearGradient>
  </defs>
  
  <!-- Rose Icon -->
  <g transform="translate(10, 20)">
    <!-- Rose petals -->
    <path d="M35 10 C25 0 10 5 10 20 C10 35 20 45 35 55 C50 45 60 35 60 20 C60 5 45 0 35 10" fill="url(#roseGradient)" opacity="0.9"/>
    <path d="M35 15 C28 8 18 12 18 22 C18 32 25 40 35 48 C45 40 52 32 52 22 C52 12 42 8 35 15" fill="#FEFEFE" opacity="0.3"/>
    <path d="M35 20 C30 15 23 18 23 25 C23 32 28 37 35 43 C42 37 47 32 47 25 C47 18 40 15 35 20" fill="url(#roseGradient)"/>
    <!-- Stem hint -->
    <path d="M35 55 L35 70" stroke="#38CB89" stroke-width="3" stroke-linecap="round"/>
    <ellipse cx="30" cy="62" rx="5" ry="3" fill="#38CB89" transform="rotate(-30 30 62)"/>
  </g>
  
  <!-- Text: Rosebud -->
  <text x="80" y="50" font-family="Poppins, sans-serif" font-size="32" font-weight="600" fill="#D63585">
    Rosebud
  </text>
  
  <!-- Text: Global -->
  <text x="80" y="80" font-family="Poppins, sans-serif" font-size="24" font-weight="400" fill="#6C7275">
    Global
  </text>
  
  <!-- Tagline -->
  <text x="80" y="100" font-family="Poppins, sans-serif" font-size="10" font-weight="400" fill="#C9A164" letter-spacing="2">
    GIFT &amp; DECORATION
  </text>
</svg>
