<?xml version="1.0" encoding="UTF-8" standalone="no"?>
<!-- Created with Inkscape (http://www.inkscape.org/) -->

<svg
   version="1.1"
   id="svg2"
   width="840"
   height="228"
   viewBox="0 0 840 228"
   sodipodi:docname="mikasa-seeklogo.ai"
   xmlns:inkscape="http://www.inkscape.org/namespaces/inkscape"
   xmlns:sodipodi="http://sodipodi.sourceforge.net/DTD/sodipodi-0.dtd"
   xmlns="http://www.w3.org/2000/svg"
   xmlns:svg="http://www.w3.org/2000/svg">
  <defs
     id="defs6">
    <clipPath
       clipPathUnits="userSpaceOnUse"
       id="clipPath16">
      <path
         d="M 0,171 H 630 V 0 H 0 Z"
         id="path14" />
    </clipPath>
  </defs>
  <sodipodi:namedview
     id="namedview4"
     pagecolor="#ffffff"
     bordercolor="#000000"
     borderopacity="0.25"
     inkscape:showpageshadow="2"
     inkscape:pageopacity="0.0"
     inkscape:pagecheckerboard="0"
     inkscape:deskcolor="#d1d1d1" />
  <g
     id="g8"
     inkscape:groupmode="layer"
     inkscape:label="mikasa-seeklogo"
     transform="matrix(1.3333333,0,0,-1.3333333,0,228)">
    <g
       id="g10">
      <g
         id="g12"
         clip-path="url(#clipPath16)">
        <g
           id="g18"
           transform="translate(456.4303,101.2633)">
          <path
             d="m 0,0 c -14.659,6.303 -38.598,14.843 -30.065,39.164 6.62,12.498 31.494,14.728 46.455,2.474 h 2.707 L 13.682,53.037 C 5.333,57.102 -32.805,62.581 -42.556,38.086 -52.222,13.802 -39.071,-1.171 -5.41,-15.212 8.023,-20.816 18.836,-35.27 8.554,-50.977 -1.561,-66.8 -32.253,-64.431 -45.59,-47.128 h -2.708 l 5.415,-15.674 c 8.349,-2.943 16.426,-5.049 23.937,-5.414 17.525,-0.228 33.911,3.847 41.605,20.66 C 31.224,-28.176 24.47,-10.521 0,0"
             style="fill:#231f20;fill-opacity:1;fill-rule:nonzero;stroke:none"
             id="path20" />
        </g>
        <g
           id="g22"
           transform="translate(609.6016,44.588)">
          <path
             d="M 0,0 H 1.054 C 2.283,0 3.276,0.41 3.276,1.404 3.276,2.283 2.634,2.868 1.229,2.868 0.644,2.868 0.234,2.809 0,2.75 Z m -0.059,-5.441 h -2.223 v 9.596 c 0.878,0.175 2.107,0.293 3.686,0.293 1.815,0 2.634,-0.293 3.336,-0.703 0.526,-0.41 0.936,-1.17 0.936,-2.106 0,-1.054 -0.82,-1.873 -1.99,-2.224 V -0.702 C 4.623,-1.053 5.149,-1.755 5.442,-3.042 5.735,-4.505 5.91,-5.091 6.144,-5.441 H 3.745 c -0.292,0.35 -0.469,1.229 -0.761,2.34 -0.175,1.054 -0.76,1.521 -1.989,1.521 h -1.054 z m -5.91,5.031 c 0,-4.271 3.16,-7.665 7.49,-7.665 4.214,0 7.315,3.394 7.315,7.608 0,4.271 -3.101,7.723 -7.373,7.723 -4.272,0 -7.432,-3.452 -7.432,-7.666 m 17.263,0 c 0,-5.441 -4.273,-9.712 -9.831,-9.712 -5.5,0 -9.889,4.271 -9.889,9.712 0,5.325 4.389,9.597 9.889,9.597 5.558,0 9.831,-4.272 9.831,-9.597"
             style="fill:#231f20;fill-opacity:1;fill-rule:nonzero;stroke:none"
             id="path24" />
        </g>
        <g
           id="g26"
           transform="translate(513.032,86.5152)">
          <path
             d="M 0,0 19.202,46.667 38.403,0 Z M 59.708,-51.309 H 76.425 L 24.288,71.335 h -3.31 L -31.151,-51.309 h 9.757 l 18.841,45.185 h 43.499 z"
             style="fill:#231f20;fill-opacity:1;fill-rule:nonzero;stroke:none"
             id="path28" />
        </g>
        <g
           id="g30"
           transform="translate(329.0336,86.5152)">
          <path
             d="M 0,0 19.202,46.667 38.403,0 Z M 59.708,-51.309 H 76.425 L 24.288,71.335 h -3.31 L -31.151,-51.309 h 9.757 l 18.841,45.185 h 43.499 z"
             style="fill:#231f20;fill-opacity:1;fill-rule:nonzero;stroke:none"
             id="path32" />
        </g>
        <g
           id="g34"
           transform="translate(304.4616,156.4013)">
          <path
             d="m 0,0 h -10.123 l -56.216,-57.508 62.316,-73.574 c 15.317,-19.495 34.542,-26.797 53.777,-19.689 -15.788,3.059 -29.69,13.891 -42.431,29.508 l -58.585,68.278 z"
             style="fill:#231f20;fill-opacity:1;fill-rule:nonzero;stroke:none"
             id="path36" />
        </g>
        <path
           d="M 236.76,35.206 H 221.969 V 156.401 H 236.76 Z"
           style="fill:#231f20;fill-opacity:1;fill-rule:nonzero;stroke:none"
           id="path38" />
        <path
           d="m 188.444,35.206 h -14.791 v 121.195 h 14.791 z"
           style="fill:#231f20;fill-opacity:1;fill-rule:nonzero;stroke:none"
           id="path40" />
        <g
           id="g42"
           transform="translate(10.2089,35.206)">
          <path
             d="M 0,0 H 8.933 L 17.578,89.633 62.821,0 h 2.305 L 110.08,89.633 119.59,0 h 14.984 l -13.255,122.644 h -2.882 L 67.143,24.507 17.154,122.644 h -3.322 z"
             style="fill:#231f20;fill-opacity:1;fill-rule:nonzero;stroke:none"
             id="path44" />
        </g>
      </g>
    </g>
  </g>
</svg>
